<svg width="27" height="24" viewBox="0 0 27 24" fill="none" xmlns="http://www.w3.org/2000/svg">
<path d="M25.2188 8.01562C24.5599 6.45618 23.6048 5.03937 22.4062 3.84375C21.2106 2.64524 19.7938 1.69009 18.2344 1.03125C16.6143 0.345703 14.8975 0 13.125 0C11.3525 0 9.63574 0.345703 8.01562 1.03125C6.45618 1.69009 5.03937 2.64524 3.84375 3.84375C2.64524 5.03937 1.69009 6.45618 1.03125 8.01562C0.345703 9.63574 0 11.3525 0 13.125C0 17.0127 1.70801 20.6748 4.68457 23.1768L4.73438 23.2178C4.9043 23.3584 5.11816 23.4375 5.33789 23.4375H20.915C21.1348 23.4375 21.3486 23.3584 21.5186 23.2178L21.5684 23.1768C24.542 20.6748 26.25 17.0127 26.25 13.125C26.25 11.3525 25.9014 9.63574 25.2188 8.01562ZM12.2461 3.51562C12.2461 3.38672 12.3516 3.28125 12.4805 3.28125H13.7695C13.8984 3.28125 14.0039 3.38672 14.0039 3.51562V5.85938C14.0039 5.98828 13.8984 6.09375 13.7695 6.09375H12.4805C12.3516 6.09375 12.2461 5.98828 12.2461 5.85938V3.51562ZM6.03516 13.7695C6.03516 13.8984 5.92969 14.0039 5.80078 14.0039H3.45703C3.32812 14.0039 3.22266 13.8984 3.22266 13.7695V12.4805C3.22266 12.3516 3.32812 12.2461 3.45703 12.2461H5.80078C5.92969 12.2461 6.03516 12.3516 6.03516 12.4805V13.7695ZM8.69238 7.77832L7.78125 8.68945C7.7372 8.73307 7.67771 8.75754 7.61572 8.75754C7.55373 8.75754 7.49425 8.73307 7.45019 8.68945L5.79199 7.03125C5.74837 6.9872 5.72391 6.92771 5.72391 6.86572C5.72391 6.80373 5.74837 6.74425 5.79199 6.7002L6.70312 5.78906C6.79394 5.69824 6.94336 5.69824 7.03418 5.78906L8.69238 7.44727C8.7832 7.53809 8.7832 7.6875 8.69238 7.77832ZM17.2207 10.2275L14.7451 12.7031C14.8916 13.251 14.751 13.8574 14.3203 14.2881C14.1681 14.4406 13.9872 14.5616 13.7882 14.6442C13.5891 14.7268 13.3757 14.7693 13.1602 14.7693C12.9446 14.7693 12.7312 14.7268 12.5322 14.6442C12.3331 14.5616 12.1523 14.4406 12 14.2881C11.8475 14.1358 11.7264 13.955 11.6439 13.7559C11.5613 13.5569 11.5188 13.3434 11.5188 13.1279C11.5188 12.9124 11.5613 12.699 11.6439 12.4999C11.7264 12.3009 11.8475 12.12 12 11.9678C12.2034 11.7637 12.4571 11.617 12.7354 11.5424C13.0137 11.4678 13.3068 11.468 13.585 11.543L16.0605 9.06738C16.1514 8.97656 16.3008 8.97656 16.3916 9.06738L17.2207 9.89648C17.3115 9.9873 17.3115 10.1338 17.2207 10.2275ZM18.4805 8.69238L17.5693 7.78125C17.5257 7.7372 17.5012 7.67771 17.5012 7.61572C17.5012 7.55373 17.5257 7.49425 17.5693 7.45019L19.2275 5.79199C19.3184 5.70117 19.4678 5.70117 19.5586 5.79199L20.4697 6.70312C20.5605 6.79394 20.5605 6.94336 20.4697 7.03418L18.8115 8.69238C18.7675 8.736 18.708 8.76047 18.646 8.76047C18.584 8.76047 18.5245 8.736 18.4805 8.69238ZM22.9102 13.7695C22.9102 13.8984 22.8047 14.0039 22.6758 14.0039H20.332C20.2031 14.0039 20.0977 13.8984 20.0977 13.7695V12.4805C20.0977 12.3516 20.2031 12.2461 20.332 12.2461H22.6758C22.8047 12.2461 22.9102 12.3516 22.9102 12.4805V13.7695Z" fill="#A5D7D9"/>
</svg>
