<?xml version="1.0" standalone="no"?>
<!DOCTYPE svg PUBLIC "-//W3C//DTD SVG 20010904//EN"
 "http://www.w3.org/TR/2001/REC-SVG-20010904/DTD/svg10.dtd">
<svg version="1.0" xmlns="http://www.w3.org/2000/svg"
 width="300.000000pt" height="86.000000pt" viewBox="0 0 300.000000 86.000000"
 preserveAspectRatio="xMidYMid meet">
<metadata>
Created by potrace 1.10, written by Peter Selinger 2001-2011
</metadata>
<g transform="translate(0.000000,86.000000) scale(0.100000,-0.100000)"
fill="#000000" stroke="none">
<path d="M2415 735 c-14 -13 -25 -33 -25 -44 0 -21 44 -61 67 -61 19 0 63 45
63 65 0 9 -11 27 -25 40 -13 14 -31 25 -40 25 -9 0 -27 -11 -40 -25z m60 -34
c3 -5 1 -13 -5 -16 -15 -9 -43 3 -35 15 8 13 32 13 40 1z"/>
<path d="M235 578 c-109 -39 -157 -166 -104 -276 53 -108 204 -134 309 -52
l25 19 -32 32 -31 32 -27 -22 c-42 -32 -99 -29 -136 8 -16 16 -29 33 -29 38 0
4 61 7 136 5 l137 -4 -7 53 c-8 62 -24 95 -63 130 -49 45 -115 59 -178 37z
m40 -41 c-3 -7 -19 -18 -36 -26 -42 -18 -54 -54 -32 -93 17 -28 17 -30 0 -43
-33 -24 0 -86 59 -111 29 -12 69 -9 117 11 9 4 17 4 17 0 0 -39 -132 -48 -188
-13 -104 64 -84 242 33 280 31 10 35 9 30 -5z m122 -32 c41 -43 52 -83 29
-101 -18 -13 -50 -8 -41 5 2 4 6 19 9 34 5 29 -31 77 -59 77 -9 0 -14 4 -10 9
3 5 0 11 -7 14 -7 2 1 2 17 0 17 -3 44 -19 62 -38z m-42 -30 c40 -39 32 -45
-60 -45 -47 0 -85 3 -85 8 1 12 24 38 45 50 33 19 74 14 100 -13z"/>
<path d="M712 575 c-18 -8 -35 -21 -38 -30 -10 -25 -27 -17 -20 10 6 24 5 25
-46 25 l-53 0 0 -185 0 -185 53 0 52 0 0 120 c0 115 1 122 25 145 32 33 68 32
94 -1 19 -24 21 -40 21 -148 l0 -121 50 0 50 0 0 113 c0 80 4 121 15 141 25
49 72 55 104 15 19 -24 21 -40 21 -148 l0 -121 50 0 50 0 0 135 c0 164 -16
211 -76 236 -50 21 -114 11 -155 -23 -29 -25 -32 -25 -41 -9 -12 21 -67 46
-100 46 -13 -1 -38 -7 -56 -15z m138 -57 c0 -4 11 -8 25 -8 29 0 30 -2 10 -40
-18 -34 -23 -71 -24 -158 -1 -46 -4 -63 -13 -60 -9 3 -15 38 -18 110 -5 116
-16 138 -75 164 -30 12 -29 14 15 27 17 5 80 -23 80 -35z m203 21 c12 -6 29
-20 37 -32 19 -29 27 -234 11 -250 -21 -21 -32 14 -28 87 6 90 -6 130 -48 163
-19 16 -35 31 -35 36 0 10 35 9 63 -4z m-407 -13 c19 -14 19 -15 0 -47 -14
-24 -20 -59 -24 -131 -3 -66 -8 -98 -16 -95 -11 4 -22 248 -12 274 7 17 27 17
52 -1z"/>
<path d="M1324 571 c-134 -61 -143 -279 -14 -346 71 -37 172 -27 229 21 l30
25 -35 31 c-21 19 -38 27 -42 21 -30 -45 -122 -42 -159 6 -25 33 -14 36 117
33 l130 -4 0 44 c0 49 -27 114 -58 141 -26 24 -88 46 -127 46 -16 0 -49 -8
-71 -18z m60 -35 c-3 -6 -19 -18 -37 -26 -42 -20 -58 -62 -32 -90 17 -19 17
-21 2 -38 -26 -28 -20 -60 15 -93 37 -33 64 -38 138 -24 33 6 34 6 16 -9 -13
-10 -40 -16 -76 -16 -67 0 -112 25 -142 80 -39 72 -6 185 64 214 36 16 58 16
52 2z m130 -40 c22 -29 30 -52 27 -83 -1 -8 -15 -13 -33 -13 -25 0 -29 3 -20
12 29 29 -3 108 -43 108 -7 0 -12 6 -12 14 0 23 54 -2 81 -38z m-66 -12 c12
-8 27 -24 32 -35 10 -18 7 -19 -75 -19 -92 0 -100 6 -60 45 28 29 70 32 103 9z"/>
<path d="M1824 576 c-17 -8 -39 -24 -48 -37 l-16 -23 0 32 c0 32 0 32 -50 32
l-50 0 0 -184 0 -184 50 -4 50 -3 0 108 c0 107 1 109 29 138 20 19 40 29 60
29 31 0 31 0 31 55 0 60 -4 63 -56 41z m-76 -51 c19 -14 25 -14 53 0 17 9 33
15 35 12 10 -9 -9 -37 -25 -37 -19 0 -52 -32 -70 -67 -6 -12 -11 -58 -11 -102
0 -65 -3 -81 -15 -81 -13 0 -15 23 -15 145 0 155 2 161 48 130z"/>
<path d="M2036 580 c-38 -12 -85 -57 -102 -97 -17 -39 -18 -121 -3 -160 35
-93 166 -139 240 -84 17 13 33 20 36 17 13 -13 -10 -77 -34 -96 -32 -25 -108
-27 -158 -3 -19 9 -37 15 -39 12 -2 -2 -7 -23 -11 -46 l-7 -42 58 -17 c69 -20
159 -14 206 13 19 10 43 38 56 63 21 41 22 57 22 242 l0 198 -51 0 c-46 0 -50
-2 -44 -20 8 -25 1 -25 -34 1 -32 24 -93 32 -135 19z m101 -46 c-1 -1 -20 -4
-42 -7 -29 -4 -49 -15 -73 -42 -32 -34 -34 -41 -30 -90 4 -50 37 -113 52 -98
3 3 6 2 6 -4 0 -6 16 -14 35 -17 40 -8 38 -26 -3 -26 -63 0 -132 79 -132 150
0 62 59 140 115 152 17 3 79 -12 72 -18z m129 -19 c11 -45 -2 -327 -16 -358
-21 -42 -71 -69 -137 -70 -35 -1 -58 2 -60 10 -3 7 3 9 16 6 57 -15 151 38
165 91 9 35 -9 76 -33 76 -11 0 -23 5 -26 10 -3 6 -2 10 4 10 16 0 61 84 61
114 0 31 -21 76 -45 96 -15 12 -14 15 7 26 36 21 57 17 64 -11z m-117 -26 c84
-29 73 -156 -16 -183 -28 -9 -88 16 -102 42 -26 50 -4 123 43 142 29 12 38 12
75 -1z"/>
<path d="M2671 577 c-46 -16 -76 -58 -76 -107 0 -51 32 -84 107 -111 68 -25
86 -42 68 -64 -17 -21 -58 -19 -105 5 l-39 20 -23 -27 c-12 -16 -22 -31 -23
-34 0 -13 49 -38 94 -50 108 -27 196 19 196 103 0 60 -17 80 -104 118 -55 24
-76 38 -76 51 0 30 44 35 87 9 l36 -21 23 28 c31 38 30 46 -12 66 -49 24 -112
30 -153 14z m16 -55 c-40 -44 -7 -97 81 -132 37 -14 72 -54 72 -80 0 -23 -48
-70 -71 -70 -16 0 -15 3 6 25 48 47 27 92 -57 121 -55 18 -77 41 -83 83 -4 35
22 71 52 71 15 0 15 -1 0 -18z"/>
<path d="M2400 395 l0 -185 45 0 c25 0 47 0 50 0 3 0 7 83 8 185 l2 185 -52 0
-53 0 0 -185z m68 -3 c-2 -97 -7 -137 -15 -140 -10 -3 -13 30 -13 142 0 126 2
145 15 140 13 -5 15 -28 13 -142z"/>
</g>
</svg>
