<svg width="23" height="23" viewBox="0 0 23 23" fill="none" xmlns="http://www.w3.org/2000/svg">
<path id="Vector" d="M22.08 0H0.92C0.411125 0 0 0.411125 0 0.92V22.08C0 22.5889 0.411125 23 0.92 23H22.08C22.5889 23 23 22.5889 23 22.08V0.92C23 0.411125 22.5889 0 22.08 0ZM7.36 18.17C7.36 18.2965 7.2565 18.4 7.13 18.4H4.83C4.7035 18.4 4.6 18.2965 4.6 18.17V4.83C4.6 4.7035 4.7035 4.6 4.83 4.6H7.13C7.2565 4.6 7.36 4.7035 7.36 4.83V18.17ZM12.88 10.12C12.88 10.2465 12.7765 10.35 12.65 10.35H10.35C10.2235 10.35 10.12 10.2465 10.12 10.12V4.83C10.12 4.7035 10.2235 4.6 10.35 4.6H12.65C12.7765 4.6 12.88 4.7035 12.88 4.83V10.12ZM18.4 12.19C18.4 12.3165 18.2965 12.42 18.17 12.42H15.87C15.7435 12.42 15.64 12.3165 15.64 12.19V4.83C15.64 4.7035 15.7435 4.6 15.87 4.6H18.17C18.2965 4.6 18.4 4.7035 18.4 4.83V12.19Z" fill="#A5D7D9"/>
</svg>
